<?xml version="1.0" encoding="UTF-8"?>
<svg width="30px" height="30px" viewBox="0 0 30 30" version="1.1" xmlns="http://www.w3.org/2000/svg" xmlns:xlink="http://www.w3.org/1999/xlink">
    <title>icon_Nạp tiền@2x</title>
    <g id="首页-tab修改" stroke="none" stroke-width="1" fill="none" fill-rule="evenodd">
        <g id="亮色已登录2" transform="translate(-1171.000000, -59.000000)" fill="#8F9BB3">
            <g id="编组-9" transform="translate(1161.000000, 54.000000)">
                <g id="icon_Nạp-tiền" transform="translate(10.000000, 5.000000)">
                    <path d="M15,0 C23.2842712,0 30,6.71572875 30,15 C30,23.2842712 23.2842712,30 15,30 C6.71572875,30 0,23.2842712 0,15 C0,6.71572875 6.71572875,0 15,0 Z M14.5,5.21874978 C8.99142857,5.21874978 4.5,9.71017835 4.5,15.2187498 C4.5,20.7273212 8.99142857,25.2187498 14.5,25.2187498 C20.0085714,25.2187498 24.5,20.7273212 24.5,15.2187498 C24.5,14.8400402 24.1929953,14.5330355 23.8142857,14.5330355 C23.4700043,14.5330355 23.1849831,14.7867584 23.1360063,15.1174199 L23.1285714,15.2187498 C23.1285714,19.9730355 19.2542857,23.8473212 14.5,23.8473212 C9.74571429,23.8473212 5.87142857,19.9730355 5.87142857,15.2187498 C5.87142857,10.4644641 9.74571429,6.59017835 14.5,6.59017835 C14.8787095,6.59017835 15.1857143,6.2831736 15.1857143,5.90446406 C15.1857143,5.65948194 15.0550179,5.43310911 14.8428572,5.31061805 C14.7369268,5.24945914 14.6187233,5.21883644 14.5,5.21874978 Z M17.8942857,9.99589263 C17.6314286,9.73303549 17.1857143,9.73303549 16.9228571,9.99589263 L14.5,12.4187497 L12.0771429,9.99589263 C11.8142857,9.73303549 11.38,9.73303549 11.1057143,9.99589263 C10.8428571,10.2587498 10.8428571,10.7044641 11.1057143,10.9673212 L13.6523048,13.5164954 C13.6486752,13.589128 13.6563219,13.6624797 13.6752448,13.7336056 L11.5285714,13.7330355 C11.1514286,13.7330355 10.8428571,14.0416069 10.8428571,14.4187498 C10.8428571,14.7958926 11.1514286,15.1044641 11.5285714,15.1044641 L13.814,15.1037497 L13.814,16.5897497 L11.5285714,16.5901783 C11.1514286,16.5901783 10.8428571,16.8987498 10.8428571,17.2758926 C10.8428571,17.6530355 11.1514286,17.9616069 11.5285714,17.9616069 L13.814,17.9607497 L13.8142857,20.2473212 C13.8142857,20.6244641 14.1228571,20.9330355 14.5,20.9330355 C14.8771429,20.9330355 15.1857143,20.6244641 15.1857143,20.2473212 L15.185,17.9607497 L17.4714286,17.9616069 C17.8485714,17.9616069 18.1571429,17.6530355 18.1571429,17.2758926 C18.1571429,16.8987498 17.8485714,16.5901783 17.4714286,16.5901783 L15.185,16.5897497 L15.185,15.1037497 L17.4714286,15.1044641 C17.8485714,15.1044641 18.1571429,14.7958926 18.1571429,14.4187498 C18.1571429,14.0416069 17.8485714,13.7330355 17.4714286,13.7330355 L15.3260672,13.7336802 C15.3444213,13.6626176 15.3515484,13.5889163 15.3474485,13.5158045 L17.8942857,10.9673212 C18.1571429,10.7044641 18.1571429,10.2587498 17.8942857,9.99589263 Z M21.1285714,5.27589263 C20.7514286,5.27589263 20.4428571,5.58446406 20.4428571,5.96160692 L20.442,7.90374975 L18.5,7.90446406 C18.1228571,7.90446406 17.8142857,8.21303549 17.8142857,8.59017835 C17.8142857,8.9673212 18.1228571,9.27589263 18.5,9.27589263 L20.442,9.27574975 L20.4428571,11.2187498 C20.4428571,11.5958926 20.7514286,11.9044641 21.1285714,11.9044641 C21.5057143,11.9044641 21.8142857,11.5958926 21.8142857,11.2187498 L21.814,9.27574975 L23.7571429,9.27589263 C24.1342857,9.27589263 24.4428571,8.9673212 24.4428571,8.59017835 C24.4428571,8.21303549 24.1342857,7.90446406 23.7571429,7.90446406 L21.814,7.90374975 L21.8142857,5.96160692 C21.8142857,5.58446406 21.5057143,5.27589263 21.1285714,5.27589263 Z" id="形状结合"></path>
                </g>
            </g>
        </g>
    </g>
</svg>