<?xml version="1.0" encoding="UTF-8"?>
<svg width="30px" height="30px" viewBox="0 0 30 30" version="1.1" xmlns="http://www.w3.org/2000/svg" xmlns:xlink="http://www.w3.org/1999/xlink">
    <title>icon_Rút tiền@2x</title>
    <g id="首页-tab修改" stroke="none" stroke-width="1" fill="none" fill-rule="evenodd">
        <g id="亮色已登录2" transform="translate(-1394.000000, -59.000000)" fill="#8F9BB3">
            <g id="编组-9" transform="translate(1161.000000, 54.000000)">
                <g id="编组-5" transform="translate(233.000000, 5.000000)">
                    <g id="icon_Rút-tiền" transform="translate(15.000000, 15.000000) scale(-1, 1) translate(-15.000000, -15.000000) ">
                        <path d="M15,0 C23.2842712,0 30,6.71572875 30,15 C30,23.2842712 23.2842712,30 15,30 C6.71572875,30 0,23.2842712 0,15 C0,6.71572875 6.71572875,0 15,0 Z M23.0944943,6 L6.88988676,6 C5.85122999,6 5,6.83560477 5,7.85519591 L5,10.3160136 C5,11.3356048 5.85122999,12.1712095 6.88988676,12.1712095 L8.31120656,12.1712095 L8.31120656,22.1448041 C8.31120656,23.1643952 9.16243655,24 10.2010933,24 L19.8301445,24 C20.8688012,24 21.7200312,23.1643952 21.7200312,22.1448041 L21.7200312,12.1635434 L23.1491605,12.1635434 C24.1878173,12.1635434 25,11.3279387 25,10.3083475 L25,7.84752981 C24.9843811,6.83560477 24.1331511,6 23.0944943,6 Z M19.8301445,10.3083475 C20.1737602,10.3083475 20.447091,10.576661 20.447091,10.9139693 L20.447091,22.213799 C20.4392815,22.7427598 19.9394768,22.8194208 19.3615775,22.8194208 L10.2010933,22.8194208 C9.85747755,22.8194208 9.58414682,22.5511073 9.58414682,22.213799 L9.58414682,10.9139693 C9.58414682,10.576661 9.85747755,10.3083475 10.2010933,10.3083475 L19.8301445,10.3083475 Z M16.815697,12.983816 L15.0039047,14.846678 L13.1530652,12.9914821 C12.9187817,12.7614991 12.575166,12.7614991 12.3408825,12.9914821 C12.106599,13.2214651 12.106599,13.5587734 12.3408825,13.7887564 L14.4572433,15.9045997 L12.1534557,15.9045997 C11.8488872,15.9045997 11.5755564,16.1729131 11.5755564,16.471891 C11.5755564,16.7708688 11.8488872,17.0391823 12.1534557,17.0391823 L14.3869582,17.0391823 L14.3869582,17.6064736 L12.1534557,17.6064736 C11.8488872,17.6064736 11.5755564,17.8747871 11.5755564,18.1737649 C11.5755564,18.4727428 11.8488872,18.7410562 12.1534557,18.7410562 L14.3869582,18.7410562 L14.3869582,20.3662692 C14.3869582,20.5962521 14.6602889,20.7802385 14.9648575,20.7802385 C15.269426,20.7802385 15.5427567,20.588586 15.5427567,20.3662692 L15.5427567,18.7410562 L17.7762593,18.7410562 C18.0808278,18.7410562 18.3541585,18.4727428 18.3541585,18.1737649 C18.3541585,17.8747871 18.0808278,17.6064736 17.7762593,17.6064736 L15.5427567,17.6064736 L15.5427567,17.0391823 L17.823116,17.0391823 C18.1276845,17.0315162 18.4010152,16.7632027 18.4010152,16.4642249 C18.4010152,16.165247 18.1276845,15.8969336 17.823116,15.8969336 L15.5115189,15.8969336 L17.6278797,13.7810903 C17.8621632,13.5511073 17.8621632,13.213799 17.6278797,12.983816 C17.3935963,12.753833 17.0499805,12.753833 16.815697,12.983816 Z M23.2116361,7.17291312 C23.5552519,7.17291312 23.8285826,7.44122658 23.8285826,7.77853492 L23.7504881,7.77853492 L23.7504881,10.3850085 C23.7504881,10.7223169 23.4771574,10.9906303 23.1335416,10.9906303 L21.6341273,10.9906303 C21.6341273,10.7989779 21.59508,10.5 21.5169856,10.3083475 C22.0167903,10.3083475 22.4385006,9.89437819 22.4385006,9.40374787 C22.4385006,8.91311755 22.0167903,8.49914821 21.5169856,8.49914821 L8.4283483,8.49914821 C7.92854354,8.49914821 7.50683327,8.91311755 7.50683327,9.40374787 C7.50683327,9.89437819 7.92854354,10.3083475 8.4283483,10.3083475 C8.35025381,10.5 8.31120656,10.7606474 8.31120656,10.9906303 L6.81179227,10.9906303 C6.46817649,10.9906303 6.19484576,10.7223169 6.19484576,10.3850085 L6.19484576,7.77853492 C6.19484576,7.44122658 6.46817649,7.17291312 6.81179227,7.17291312 L23.2116361,7.17291312 Z" id="形状结合"></path>
                    </g>
                </g>
            </g>
        </g>
    </g>
</svg>