<?xml version="1.0" encoding="UTF-8"?>
<svg width="30px" height="28px" viewBox="0 0 30 28" version="1.1" xmlns="http://www.w3.org/2000/svg" xmlns:xlink="http://www.w3.org/1999/xlink">
    <title>icon_Chuyển quỹ@2x</title>
    <g id="首页-tab修改" stroke="none" stroke-width="1" fill="none" fill-rule="evenodd">
        <g id="亮色已登录2" transform="translate(-1272.000000, -60.000000)" fill="#8F9BB3">
            <g id="编组-9" transform="translate(1161.000000, 54.000000)">
                <g id="icon_Chuyển-quỹ" transform="translate(111.000000, 6.000000)">
                    <path d="M17.3862493,11.0869121 C16.8127446,11.6988753 16.4974846,12.50409 16.4974846,13.359407 L16.4974846,14.640593 C16.4974846,15.49591 16.8127446,16.3011247 17.3862493,16.9130879 C17.9597541,17.5250511 18.7143656,17.8614519 19.5159307,17.8614519 L30,17.8614519 L30,10.1385481 L19.5159307,10.1385481 C18.7143656,10.1385481 17.9564002,10.4749489 17.3862493,11.0869121 Z M20.7501397,12.5685072 C21.4913359,12.5685072 22.0916713,13.2091002 22.0916713,14 C22.0916713,14.7908998 21.4913359,15.4314928 20.7501397,15.4314928 C20.0089435,15.4314928 19.4086082,14.7908998 19.4086082,14 C19.4086082,13.2091002 20.0089435,12.5685072 20.7501397,12.5685072 Z" id="形状"></path>
                    <path d="M25.9150363,0 L4.0883175,0 C1.83454444,0 0,1.95398773 0,4.36247444 L0,23.6375256 C0,26.0424335 1.83119061,28 4.0883175,28 L25.9116825,28 C28.1654556,28 30,26.0460123 30,23.6375256 L30,19.650818 L19.5159307,19.650818 C16.9334824,19.650818 14.8205702,17.3962168 14.8205702,14.640593 L14.8205702,13.359407 C14.8205702,10.6037832 16.9334824,8.349182 19.5159307,8.349182 L30,8.349182 L30,4.36247444 C30,1.95756646 28.1654556,0 25.9150363,0 Z" id="路径"></path>
                </g>
            </g>
        </g>
    </g>
</svg>