<svg xmlns="http://www.w3.org/2000/svg" xmlns:xlink="http://www.w3.org/1999/xlink" width="23" height="22" viewBox="0 0 23 22">
    <defs>
        <circle id="drfs9jjysa" cx="11" cy="11" r="11"/>
    </defs>
    <g fill="none" fill-rule="evenodd">
        <g>
            <g>
                <g transform="translate(-380 -2533) translate(41 1238) translate(339 1295)">
                    <mask id="s7dwbr2xkb" fill="#fff">
                        <use xlink:href="#drfs9jjysa"/>
                    </mask>
                    <use fill="#00247D" xlink:href="#drfs9jjysa"/>
                    <g mask="url(#s7dwbr2xkb)">
                        <g>
                            <path fill="#CF142B" d="M13.916.622l.002.177v11.28c0 .165 0 .166.16.166h5.159l5.633.001v3.098l-.134.001H14.078c-.16 0-.16 0-.16.166v1.574L13.917 25h-2.963l-.002-.178v-9.311c0-.166 0-.166-.159-.166h-5.16L0 15.344v-3.098l.134-.001h10.658c.159 0 .159 0 .159-.166v-1.574l.002-9.883h2.963z" transform="translate(-1.913 -2)"/>
                            <path fill="#FFF" d="M10.953 2l-.002 8.505v1.574c0 .165 0 .166-.159.166H.134L0 12.246v-1.04c.052-.005.104-.012.156-.012h5.175c-.03-.047-.064-.069-.098-.09L2.675 9.5 0 7.828V6h2.939c.023.021.045.046.071.063l6.835 4.283c.026.016.054.027.098.049v-.157-8.1c0-.046-.007-.092-.01-.138h1.02zM0 15.344l5.633.001h5.159c.159 0 .159 0 .159.166v9.134l.002.177h-1.02c.003-.033.01-.067.01-.1v-7.409c0-.035-.008-.07-.013-.118l-.106.06-6.803 4.266c-.03.018-.055.046-.082.069H0v-1.828l.043-.023 5.242-3.285c.018-.01.032-.027.068-.058H.156c-.052 0-.104-.007-.156-.011v-1.041zM24.87 12.246l-5.633-.001h-5.16c-.158 0-.158 0-.158-.166V2.077l-.003-.177h1.02c-.003.033-.009.067-.009.1v8.274c0 .036.006.071.01.122.051-.029.09-.05.127-.073 1.29-.807 2.579-1.615 3.868-2.424C19.94 7.267 20.947 6.633 21.955 6h2.915v1.828l-.043.024-5.241 3.284c-.018.01-.032.027-.069.058h5.196c.052 0 .104.007.157.011v1.041zM13.916 24.822l.003-7.737V15.51c0-.166 0-.166.159-.166h10.658l.134-.001v1.04c-.052.005-.105.012-.157.012H19.54c.03.047.064.069.098.09l1.674 1.05 3.558 2.226v1.828h-2.915c-.01-.008-.019-.016-.03-.022l-6.892-4.321c-.027-.017-.055-.03-.106-.058v7.495c0 .046.006.092.01.138h-1.02z" transform="translate(-1.913 -2)"/>
                            <path fill="#00247D" d="M21.955 6l-3.023 1.9-3.868 2.423c-.037.024-.076.044-.126.073-.005-.05-.01-.086-.01-.122V6.1c0-.033.005-.067.008-.1h7.02zM14.936 21.59c-.003-.046-.009-.093-.009-.139V17.19c.05.028.08.041.106.058l6.893 4.32.03.023h-7.02zM9.933 6c.003.046.01.092.01.139V10.395c-.044-.022-.072-.033-.098-.049L3.01 6.063C2.984 6.046 2.962 6.02 2.94 6h6.994zM2.939 21.59c.027-.023.052-.05.082-.07l6.803-4.264c.03-.02.062-.036.106-.061.005.048.012.083.012.118v4.176c0 .034-.006.067-.009.1H2.94zM0 7.828L2.675 9.5l2.558 1.604c.034.021.068.043.098.09H.156c-.052 0-.104.007-.156.011V7.828zM24.87 11.205c-.053-.004-.105-.011-.157-.011h-5.196c.037-.031.051-.047.069-.058l5.241-3.284.043-.024v3.377zM0 16.385c.052.004.104.01.156.01l5.037.001h.16c-.036.031-.05.047-.068.058L.043 19.74 0 19.762v-3.377zM24.87 19.762l-3.558-2.227-1.674-1.049c-.034-.021-.068-.043-.098-.09h5.173c.052 0 .105-.007.157-.011v3.377z" transform="translate(-1.913 -2)"/>
                        </g>
                    </g>
                </g>
            </g>
        </g>
    </g>
</svg>
